<?xml version="1.0" encoding="utf-8"?>
<svg width="835px" height="106px" viewbox="0 0 835 106" version="1.1" xmlns:xlink="http://www.w3.org/1999/xlink" xmlns="http://www.w3.org/2000/svg">
  <g id="Group-5">
    <g id="Group-3" transform="translate(0 0.040100098)">
      <path d="M0 0.396572L48.9804 0" transform="translate(4.7504425 53.453186)" id="Line-4" fill="#000000" fill-rule="evenodd" stroke="none" />
      <path d="M53.6924 0.000193296L4.71203 0.396765C3.40027 0.407372 2.28437 0.880199 1.36433 1.81529C0.444243 2.75034 -0.0104863 3.87375 0.000193296 5.18554C0.0107763 6.49729 0.483627 7.61319 1.4187 8.53323C2.35377 9.45328 3.47721 9.90798 4.78896 9.89737L53.7694 9.5008C55.0811 9.49017 56.197 9.01732 57.1171 8.08225C58.0371 7.1472 58.4918 6.02379 58.4812 4.71203C58.4705 3.40025 57.9977 2.28435 57.0626 1.36429C56.1275 0.444267 55.0041 -0.010438 53.6924 0.000193296L53.6924 0.000193296Z" transform="translate(0 48.70276)" id="Vector" fill="#59ADFF" fill-rule="evenodd" stroke="none" />
      <path d="M0 0L65.3287 0.396572" transform="translate(138.94057 53.453186)" id="Line-12" fill="#000000" fill-rule="evenodd" stroke="none" />
      <path d="M4.7793 9.66482e-05L70.108 0.396668C70.738 0.400486 71.3432 0.524703 71.9237 0.769295C72.5042 1.01389 73.0159 1.36025 73.4586 1.80838C73.9013 2.25654 74.2414 2.77233 74.4789 3.35577C74.7165 3.93921 74.8333 4.54592 74.8295 5.17585C74.8215 6.4876 74.3509 7.60445 73.4177 8.5264C72.4846 9.44832 71.3621 9.90532 70.0503 9.89738L4.7216 9.5008C4.0917 9.49699 3.48644 9.37277 2.90592 9.12818C2.3254 8.88358 1.81375 8.5372 1.37105 8.08906C0.928305 7.64093 0.588152 7.12514 0.350639 6.5417C0.113127 5.95826 -0.00372095 5.35155 9.66481e-05 4.72162C0.00807012 3.40984 0.478602 2.29298 1.41179 1.37103C2.34497 0.449124 3.46749 -0.00785266 4.7793 9.66482e-05L4.7793 9.66482e-05Z" transform="translate(134.19012 48.70276)" id="Vector" fill="#59ADFF" fill-rule="evenodd" stroke="none" />
      <path d="M0 1.56062L10.6122 1.56062" transform="translate(71.52194 51.89264)" id="Line-7" fill="#000000" fill-rule="evenodd" stroke="none" />
      <path d="M15.3627 0L4.75045 0C3.43864 0 2.31893 0.46379 1.39135 1.39135C0.463766 2.31895 0 3.43864 0 4.75045C0 6.06223 0.463766 7.18192 1.39135 8.10951C2.31893 9.03709 3.43864 9.50088 4.75045 9.5009L15.3627 9.5009C16.6745 9.50088 17.7941 9.03709 18.7217 8.10951C19.6493 7.18192 20.1131 6.06223 20.1131 4.75045C20.1131 3.43864 19.6493 2.31895 18.7217 1.39135C17.7941 0.46379 16.6745 0 15.3627 0L15.3627 0Z" transform="translate(66.771484 48.70276)" id="Vector" fill="#59ADFF" fill-rule="evenodd" stroke="none" />
      <path d="M0 15.3972L8.88955 0" transform="translate(53.680115 38.016235)" id="Line-5" fill="#000000" fill-rule="evenodd" stroke="none" />
      <path d="M9.53786 2.38706L0.648316 17.7842C-0.00758688 18.9203 -0.1658 20.1219 0.173725 21.389C0.51325 22.6561 1.25106 23.6176 2.38711 24.2735C3.52316 24.9293 4.72469 25.0875 5.9918 24.748C7.2589 24.4085 8.22045 23.6707 8.87636 22.5347L17.7659 7.13751C18.4218 6.00144 18.58 4.79986 18.2404 3.53276C17.9009 2.26565 17.1632 1.30415 16.0271 0.648267C14.8911 -0.0076352 13.6894 -0.165824 12.4223 0.173701C11.1552 0.513202 10.1938 1.25099 9.53786 2.38706L9.53786 2.38706Z" transform="translate(48.91768 33.25403)" id="Vector" fill="#59ADFF" fill-rule="evenodd" stroke="none" />
      <path d="M0 0L8.8896 15.3972" transform="translate(62.626526 38.05597)" id="Line-6" fill="#000000" fill-rule="evenodd" stroke="none" />
      <path d="M17.7547 17.7842L8.86514 2.38706C8.20924 1.25099 7.24769 0.513202 5.98058 0.173701C4.71348 -0.165824 3.5119 -0.0076352 2.3759 0.648292C1.83037 0.963268 1.36583 1.37064 0.98238 1.87043C0.59888 2.37017 0.325607 2.92431 0.162562 3.5328C-0.00048324 4.1413 -0.0408821 4.75782 0.0413171 5.38236C0.123516 6.00692 0.322128 6.59196 0.637104 7.13751L9.5267 22.5347C10.1826 23.6707 11.1441 24.4085 12.4112 24.748C13.6783 25.0875 14.8798 24.9293 16.0159 24.2735C16.5615 23.9585 17.026 23.5511 17.4095 23.0514C17.793 22.5516 18.0663 21.9974 18.2293 21.389C18.3924 20.7805 18.4328 20.164 18.3506 19.5394C18.2684 18.9149 18.0698 18.3298 17.7547 17.7842L17.7547 17.7842Z" transform="translate(57.875412 33.293762)" id="Vector" fill="#59ADFF" fill-rule="evenodd" stroke="none" />
      <path d="M0 0L4.60156 17.1734" transform="translate(82.134094 53.453186)" id="Line-8" fill="#000000" fill-rule="evenodd" stroke="none" />
      <path d="M13.9524 20.6951L9.35085 3.52169C9.18785 2.91322 8.91458 2.35908 8.53108 1.85929C8.14758 1.35953 7.68304 0.952154 7.13747 0.637153C6.59193 0.322152 6.00687 0.123565 5.38229 0.0413413C4.75775 -0.0408822 4.14123 -0.000459079 3.53278 0.162611C2.26567 0.502111 1.30417 1.2399 0.648267 2.37595C-0.0076352 3.51203 -0.165848 4.7136 0.173725 5.98071L4.77529 23.1541C4.93838 23.7626 5.21165 24.3167 5.59515 24.8165C5.97861 25.3163 6.44314 25.7236 6.98867 26.0386C7.53421 26.3535 8.11922 26.5521 8.7438 26.6343C9.36834 26.7166 9.98486 26.6762 10.5934 26.5132C11.8604 26.1736 12.8219 25.4358 13.4778 24.2998C14.1337 23.1637 14.2919 21.9622 13.9524 20.6951L13.9524 20.6951Z" transform="translate(77.37186 48.701965)" id="Vector" fill="#59ADFF" fill-rule="evenodd" stroke="none" />
      <path d="M0 65.8567L17.6462 0" transform="translate(86.65993 4.7633057)" id="Line-9" fill="#000000" fill-rule="evenodd" stroke="none" />
      <path d="M17.8199 3.52167L0.173725 69.3784C-0.1658 70.6454 -0.0076352 71.847 0.648219 72.9831C1.30412 74.1191 2.26567 74.8569 3.53278 75.1965C4.14123 75.3595 4.75775 75.3999 5.38224 75.3177C6.00678 75.2355 6.59184 75.0369 7.13742 74.7219C7.683 74.4069 8.14753 73.9996 8.53108 73.4998C8.91453 73 9.18781 72.4459 9.35085 71.8374L26.9971 5.98068C27.3365 4.71358 27.1783 3.512 26.5224 2.37593C25.8665 1.23987 24.9051 0.502087 23.638 0.162586C23.0295 -0.000483241 22.413 -0.0408822 21.7884 0.0413412C21.1638 0.123565 20.5788 0.322177 20.0333 0.637153C19.4877 0.952153 19.0233 1.35953 18.6398 1.85929C18.2563 2.35906 17.983 2.91319 17.8199 3.52167L17.8199 3.52167Z" transform="translate(81.89769 0.012207031)" id="Vector" fill="#59ADFF" fill-rule="evenodd" stroke="none" />
      <path d="M0 47.6594L8.40361 0" transform="translate(129.74498 53.422913)" id="Line-11" fill="#000000" fill-rule="evenodd" stroke="none" />
      <path d="M8.47667 3.93281L0.073066 51.5922C-0.0363397 52.2126 -0.0228573 52.8303 0.113465 53.4453C0.249787 54.0603 0.498656 54.6258 0.859975 55.1419C1.22134 55.6579 1.66766 56.0851 2.19899 56.4236C2.73031 56.7621 3.30614 56.986 3.92648 57.0954C5.21832 57.3232 6.40154 57.0609 7.47612 56.3084C8.5507 55.556 9.20187 54.5339 9.42967 53.242L17.8333 5.58259C17.9426 4.96221 17.9292 4.3445 17.7928 3.72948C17.6565 3.11446 17.4076 2.54895 17.0463 2.03295C16.685 1.51692 16.2387 1.08968 15.7074 0.751198C15.1761 0.412736 14.6003 0.188802 13.9799 0.0794206C12.688 -0.148403 11.5047 0.113924 10.4301 0.866354C9.35554 1.61878 8.70442 2.64093 8.47667 3.93281L8.47667 3.93281Z" transform="translate(124.99367 48.665222)" id="Vector" fill="#59ADFF" fill-rule="evenodd" stroke="none" />
      <path d="M0 0L24.6577 96.2903" transform="translate(104.29502 4.76178)" id="Line-10" fill="#000000" fill-rule="evenodd" stroke="none" />
      <path d="M9.35317 3.58333L34.0109 99.8736C34.1672 100.484 34.2007 101.101 34.1116 101.724C34.0224 102.348 33.8173 102.931 33.4963 103.473C33.1753 104.015 32.7628 104.475 32.2589 104.853C31.7549 105.231 31.1977 105.498 30.5874 105.654C29.3166 105.979 28.1168 105.808 26.9881 105.139C25.8595 104.471 25.1324 103.501 24.807 102.231L0.149273 5.94024C-0.00700699 5.32998 -0.0405922 4.71305 0.0485657 4.08945C0.137724 3.46583 0.342811 2.88301 0.663828 2.34099C0.984844 1.79896 1.39739 1.33901 1.90136 0.961093C2.40533 0.583175 2.96246 0.316088 3.57274 0.159832C4.84352 -0.165607 6.04326 0.0059197 7.17192 0.674411C8.30062 1.34288 9.02771 2.31252 9.35317 3.58333L9.35317 3.58333Z" transform="translate(99.54379 0)" id="Vector" fill="#59ADFF" fill-rule="evenodd" stroke="none" />
    </g>
    <path d="M0 0.396572L48.9804 0" transform="translate(197.73064 53.453186)" id="Line-4" fill="#000000" fill-rule="evenodd" stroke="none" />
    <path d="M53.6924 0.000193296L4.71203 0.396765C3.40027 0.407372 2.28437 0.880199 1.36433 1.81529C0.444243 2.75034 -0.0104863 3.87375 0.000193296 5.18554C0.0107763 6.49729 0.483627 7.61319 1.4187 8.53323C2.35377 9.45328 3.47721 9.90798 4.78896 9.89737L53.7694 9.5008C55.0811 9.49017 56.197 9.01732 57.1171 8.08225C58.0371 7.1472 58.4918 6.02379 58.4812 4.71203C58.4705 3.40025 57.9977 2.28435 57.0626 1.36429C56.1275 0.444267 55.0041 -0.010438 53.6924 0.000193296L53.6924 0.000193296Z" transform="translate(192.9802 48.70276)" id="Vector" fill="#59ADFF" fill-rule="evenodd" stroke="none" />
    <path d="M53.6924 0.000193296L4.71203 0.396765C3.40027 0.407372 2.28437 0.880199 1.36433 1.81529C0.444243 2.75034 -0.0104863 3.87375 0.000193296 5.18554C0.0107763 6.49729 0.483627 7.61319 1.4187 8.53323C2.35377 9.45328 3.47721 9.90798 4.78896 9.89737L53.7694 9.5008C55.0811 9.49017 56.197 9.01732 57.1171 8.08225C58.0371 7.1472 58.4918 6.02379 58.4812 4.71203C58.4705 3.40025 57.9977 2.28435 57.0626 1.36429C56.1275 0.444267 55.0041 -0.010438 53.6924 0.000193296L53.6924 0.000193296Z" transform="translate(327.9 47.70276)" id="Vector-2" fill="#59ADFF" fill-rule="evenodd" stroke="none" />
    <path d="M0 0L65.3287 0.396572" transform="translate(331.92078 53.453186)" id="Line-12" fill="#000000" fill-rule="evenodd" stroke="none" />
    <path d="M32.3816 9.66482e-05L475.009 0.396668C479.277 0.400486 483.378 0.524703 487.311 0.769295C491.244 1.01389 494.711 1.36025 497.711 1.80838C500.71 2.25654 503.015 2.77233 504.624 3.35577C506.234 3.93921 507.025 4.54592 506.999 5.17585C506.945 6.4876 503.757 7.60445 497.434 8.5264C491.111 9.44832 483.506 9.90532 474.618 9.89738L31.9907 9.5008C27.7228 9.49699 23.622 9.37277 19.6887 9.12818C15.7555 8.88358 12.2888 8.5372 9.2894 8.08906C6.28963 7.64093 3.98496 7.12514 2.37572 6.5417C0.766477 5.95826 -0.0252109 5.35155 0.000654829 4.72162C0.0546782 3.40984 3.24271 2.29298 9.56541 1.37103C15.8881 0.449124 23.4936 -0.00785266 32.3816 9.66482e-05L32.3816 9.66482e-05Z" transform="translate(328 47.70276)" id="Vector" fill="#59ADFF" fill-rule="evenodd" stroke="none" />
    <path d="M0 1.56062L10.6122 1.56062" transform="translate(264.50214 51.89264)" id="Line-7" fill="#000000" fill-rule="evenodd" stroke="none" />
    <path d="M15.3627 0L4.75045 0C3.43864 0 2.31893 0.46379 1.39135 1.39135C0.463766 2.31895 0 3.43864 0 4.75045C0 6.06223 0.463766 7.18192 1.39135 8.10951C2.31893 9.03709 3.43864 9.50088 4.75045 9.5009L15.3627 9.5009C16.6745 9.50088 17.7941 9.03709 18.7217 8.10951C19.6493 7.18192 20.1131 6.06223 20.1131 4.75045C20.1131 3.43864 19.6493 2.31895 18.7217 1.39135C17.7941 0.46379 16.6745 0 15.3627 0L15.3627 0Z" transform="translate(259.75168 48.70276)" id="Vector" fill="#59ADFF" fill-rule="evenodd" stroke="none" />
    <path d="M0 15.3972L8.88955 0" transform="translate(246.66031 38.016235)" id="Line-5" fill="#000000" fill-rule="evenodd" stroke="none" />
    <path d="M9.53786 2.38706L0.648316 17.7842C-0.00758688 18.9203 -0.1658 20.1219 0.173725 21.389C0.51325 22.6561 1.25106 23.6176 2.38711 24.2735C3.52316 24.9293 4.72469 25.0875 5.9918 24.748C7.2589 24.4085 8.22045 23.6707 8.87636 22.5347L17.7659 7.13751C18.4218 6.00144 18.58 4.79986 18.2404 3.53276C17.9009 2.26565 17.1632 1.30415 16.0271 0.648267C14.8911 -0.0076352 13.6894 -0.165824 12.4223 0.173701C11.1552 0.513202 10.1938 1.25099 9.53786 2.38706L9.53786 2.38706Z" transform="translate(241.89787 33.25403)" id="Vector" fill="#59ADFF" fill-rule="evenodd" stroke="none" />
    <path d="M0 0L8.8896 15.3972" transform="translate(255.60672 38.05597)" id="Line-6" fill="#000000" fill-rule="evenodd" stroke="none" />
    <path d="M17.7547 17.7842L8.86514 2.38706C8.20924 1.25099 7.24769 0.513202 5.98058 0.173701C4.71348 -0.165824 3.5119 -0.0076352 2.3759 0.648292C1.83037 0.963268 1.36583 1.37064 0.98238 1.87043C0.59888 2.37017 0.325607 2.92431 0.162562 3.5328C-0.00048324 4.1413 -0.0408821 4.75782 0.0413171 5.38236C0.123516 6.00692 0.322128 6.59196 0.637104 7.13751L9.5267 22.5347C10.1826 23.6707 11.1441 24.4085 12.4112 24.748C13.6783 25.0875 14.8798 24.9293 16.0159 24.2735C16.5615 23.9585 17.026 23.5511 17.4095 23.0514C17.793 22.5516 18.0663 21.9974 18.2293 21.389C18.3924 20.7805 18.4328 20.164 18.3506 19.5394C18.2684 18.9149 18.0698 18.3298 17.7547 17.7842L17.7547 17.7842Z" transform="translate(250.8556 33.293762)" id="Vector" fill="#59ADFF" fill-rule="evenodd" stroke="none" />
    <path d="M0 0L4.60156 17.1734" transform="translate(275.1143 53.453186)" id="Line-8" fill="#000000" fill-rule="evenodd" stroke="none" />
    <path d="M13.9524 20.6951L9.35085 3.52169C9.18785 2.91322 8.91458 2.35908 8.53108 1.85929C8.14758 1.35953 7.68304 0.952154 7.13747 0.637153C6.59193 0.322152 6.00687 0.123565 5.38229 0.0413413C4.75775 -0.0408822 4.14123 -0.000459079 3.53278 0.162611C2.26567 0.502111 1.30417 1.2399 0.648267 2.37595C-0.0076352 3.51203 -0.165848 4.7136 0.173725 5.98071L4.77529 23.1541C4.93838 23.7626 5.21165 24.3167 5.59515 24.8165C5.97861 25.3163 6.44314 25.7236 6.98867 26.0386C7.53421 26.3535 8.11922 26.5521 8.7438 26.6343C9.36834 26.7166 9.98486 26.6762 10.5934 26.5132C11.8604 26.1736 12.8219 25.4358 13.4778 24.2998C14.1337 23.1637 14.2919 21.9622 13.9524 20.6951L13.9524 20.6951Z" transform="translate(270.35205 48.701965)" id="Vector" fill="#59ADFF" fill-rule="evenodd" stroke="none" />
    <path d="M0 65.8567L17.6462 0" transform="translate(279.64014 4.7633057)" id="Line-9" fill="#000000" fill-rule="evenodd" stroke="none" />
    <path d="M17.8199 3.52167L0.173725 69.3784C-0.1658 70.6454 -0.0076352 71.847 0.648219 72.9831C1.30412 74.1191 2.26567 74.8569 3.53278 75.1965C4.14123 75.3595 4.75775 75.3999 5.38224 75.3177C6.00678 75.2355 6.59184 75.0369 7.13742 74.7219C7.683 74.4069 8.14753 73.9996 8.53108 73.4998C8.91453 73 9.18781 72.4459 9.35085 71.8374L26.9971 5.98068C27.3365 4.71358 27.1783 3.512 26.5224 2.37593C25.8665 1.23987 24.9051 0.502087 23.638 0.162586C23.0295 -0.000483241 22.413 -0.0408822 21.7884 0.0413412C21.1638 0.123565 20.5788 0.322177 20.0333 0.637153C19.4877 0.952153 19.0233 1.35953 18.6398 1.85929C18.2563 2.35906 17.983 2.91319 17.8199 3.52167L17.8199 3.52167Z" transform="translate(274.87787 0.012207031)" id="Vector" fill="#59ADFF" fill-rule="evenodd" stroke="none" />
    <path d="M0 47.6594L8.40361 0" transform="translate(322.72516 53.422913)" id="Line-11" fill="#000000" fill-rule="evenodd" stroke="none" />
    <path d="M8.47667 3.93281L0.073066 51.5922C-0.0363397 52.2126 -0.0228573 52.8303 0.113465 53.4453C0.249787 54.0603 0.498656 54.6258 0.859975 55.1419C1.22134 55.6579 1.66766 56.0851 2.19899 56.4236C2.73031 56.7621 3.30614 56.986 3.92648 57.0954C5.21832 57.3232 6.40154 57.0609 7.47612 56.3084C8.5507 55.556 9.20187 54.5339 9.42967 53.242L17.8333 5.58259C17.9426 4.96221 17.9292 4.3445 17.7928 3.72948C17.6565 3.11446 17.4076 2.54895 17.0463 2.03295C16.685 1.51692 16.2387 1.08968 15.7074 0.751198C15.1761 0.412736 14.6003 0.188802 13.9799 0.0794206C12.688 -0.148403 11.5047 0.113924 10.4301 0.866354C9.35554 1.61878 8.70442 2.64093 8.47667 3.93281L8.47667 3.93281Z" transform="translate(317.97388 48.665222)" id="Vector" fill="#59ADFF" fill-rule="evenodd" stroke="none" />
    <path d="M0 0L24.6577 96.2903" transform="translate(297.2752 4.76178)" id="Line-10" fill="#000000" fill-rule="evenodd" stroke="none" />
    <path d="M9.35317 3.58333L34.0109 99.8736C34.1672 100.484 34.2007 101.101 34.1116 101.724C34.0224 102.348 33.8173 102.931 33.4963 103.473C33.1753 104.015 32.7628 104.475 32.2589 104.853C31.7549 105.231 31.1977 105.498 30.5874 105.654C29.3166 105.979 28.1168 105.808 26.9881 105.139C25.8595 104.471 25.1324 103.501 24.807 102.231L0.149273 5.94024C-0.00700699 5.32998 -0.0405922 4.71305 0.0485657 4.08945C0.137724 3.46583 0.342811 2.88301 0.663828 2.34099C0.984844 1.79896 1.39739 1.33901 1.90136 0.961093C2.40533 0.583175 2.96246 0.316088 3.57274 0.159832C4.84352 -0.165607 6.04326 0.0059197 7.17192 0.674411C8.30062 1.34288 9.02771 2.31252 9.35317 3.58333L9.35317 3.58333Z" transform="translate(292.524 0)" id="Vector" fill="#59ADFF" fill-rule="evenodd" stroke="none" />
  </g>
</svg>