<?xml version="1.0" encoding="utf-8"?>
<svg width="264px" height="83px" viewbox="0 0 264 83" version="1.1" xmlns:xlink="http://www.w3.org/1999/xlink" xmlns="http://www.w3.org/2000/svg">
  <defs>
    <path d="M94 25C94 30.8921 91.9617 36.308 88.5518 40.5813L84.5813 44.5518C84.5273 44.5949 84.4731 44.6377 84.4187 44.6804L47.0331 82.066L9.87223 44.9052C9.82345 44.8681 9.77481 44.8308 9.72631 44.7933L5.20669 40.2737C1.94227 36.0495 0 30.7516 0 25C0 11.1929 11.1929 0 25 0C34.5054 0 42.7718 5.30488 47 13.1155C51.2282 5.30488 59.4946 0 69 0C82.8071 0 94 11.1929 94 25Z" id="path_1" />
    <clipPath id="mask_1">
      <use xlink:href="#path_1" />
    </clipPath>
  </defs>
  <g id="Group-4">
    <path d="M131.862 43.335L131.8 14.6101L117.562 38.3825L113.971 38.3825L99.7324 14.9815L99.7324 43.335L92.0559 43.335L92.0559 0L98.68 0L115.89 28.7249L132.791 0L139.415 0L139.477 43.335L131.862 43.335ZM64.9406 0C68.6963 0 71.9671 0.619072 74.7529 1.85722C77.5387 3.09536 79.6745 4.87003 81.1603 7.18123C82.6461 9.49244 83.389 12.237 83.389 15.4149C83.389 18.5515 82.6461 21.2858 81.1603 23.6176C79.6745 25.9494 77.5387 27.7344 74.7529 28.9726C71.9671 30.2107 68.6963 30.8298 64.9406 30.8298L55.1593 30.8298L55.1593 43.335L47.1114 43.335L47.1114 0L64.9406 0ZM64.5692 24.02C68.0772 24.02 70.7392 23.2771 72.5552 21.7913C74.3711 20.3056 75.2791 18.1801 75.2791 15.4149C75.2791 12.6497 74.3711 10.5242 72.5552 9.03844C70.7392 7.55267 68.0772 6.80978 64.5692 6.80978L55.1593 6.80978L55.1593 24.02L64.5692 24.02ZM30.706 20.8008C33.0997 21.585 34.9982 22.8953 36.4014 24.7319C37.8046 26.5685 38.5062 28.8487 38.5063 31.5727C38.5062 35.3284 37.0618 38.2277 34.1728 40.2706C31.2838 42.3136 27.0741 43.335 21.5437 43.335L0 43.335L0 0L20.3055 0C25.4232 0 29.3646 1.00083 32.1298 3.0025C34.895 5.00416 36.2776 7.75903 36.2776 11.2671C36.2776 13.4132 35.7823 15.3117 34.7918 16.9626C33.8013 18.6134 32.4394 19.8928 30.706 20.8008L30.706 20.8008ZM8.04791 6.31453L8.04791 18.2626L19.4388 18.2626C22.2453 18.2626 24.4017 17.757 25.9081 16.7459C27.4145 15.7347 28.1677 14.2593 28.1677 12.3195C28.1677 10.3385 27.4145 8.84241 25.9081 7.83126C24.4017 6.8201 22.2453 6.31453 19.4388 6.31453L8.04791 6.31453ZM21.0484 37.0205C27.2804 37.0205 30.3964 34.9363 30.3964 30.7678C30.3964 26.5994 27.2804 24.5152 21.0484 24.5152L8.04791 24.5152L8.04791 37.0205L21.0484 37.0205Z" transform="translate(124.49997 19.706894)" id="BPM-2" fill="#59ADFF" stroke="none" />
    <g id="Group-4-+-Rectangle-5-Xor-Mask">
      <path d="M94 25C94 30.8921 91.9617 36.308 88.5518 40.5813L84.5813 44.5518C84.5273 44.5949 84.4731 44.6377 84.4187 44.6804L47.0331 82.066L9.87223 44.9052C9.82345 44.8681 9.77481 44.8308 9.72631 44.7933L5.20669 40.2737C1.94227 36.0495 0 30.7516 0 25C0 11.1929 11.1929 0 25 0C34.5054 0 42.7718 5.30488 47 13.1155C51.2282 5.30488 59.4946 0 69 0C82.8071 0 94 11.1929 94 25Z" id="Mask" fill="#BF0000" fill-rule="evenodd" stroke="none" />
      <g clip-path="url(#mask_1)">
        <g id="Group-4" transform="translate(2 17.327225)">
          <path d="M0 0.170757L21.09 0" transform="translate(2.0454712 23.015953)" id="Line-4" fill="#000000" fill-rule="evenodd" stroke="none" />
          <path d="M23.119 8.32298e-05L2.02891 0.170839C1.46409 0.175407 0.983609 0.378997 0.587456 0.781631C0.191283 1.18425 -0.00451521 1.66797 8.32298e-05 2.23279C0.00464006 2.79761 0.208241 3.2781 0.610865 3.67425C1.01349 4.0704 1.49722 4.26619 2.06204 4.26162L23.1521 4.09087C23.7169 4.08629 24.1974 3.88269 24.5935 3.48007C24.9897 3.07745 25.1855 2.59373 25.1809 2.02891C25.1763 1.46408 24.9727 0.983599 24.5701 0.587436C24.1675 0.191293 23.6838 -0.00449441 23.119 8.32298e-05L23.119 8.32298e-05Z" transform="translate(0 20.970482)" id="Vector" fill="#59ADFF" fill-rule="evenodd" stroke="none" />
          <path d="M0 0L28.1293 0.170757" transform="translate(59.825226 23.015953)" id="Line-12" fill="#000000" fill-rule="evenodd" stroke="none" />
          <path d="M2.05788 4.16149e-05L30.1872 0.170798C30.4585 0.172442 30.719 0.225927 30.969 0.331244C31.219 0.436561 31.4393 0.585698 31.6299 0.778656C31.8205 0.971624 31.967 1.19371 32.0692 1.44493C32.1715 1.69615 32.2218 1.95739 32.2202 2.22862C32.2168 2.79344 32.0141 3.27433 31.6123 3.67131C31.2105 4.06827 30.7272 4.26505 30.1624 4.26162L2.03303 4.09087C1.76181 4.08922 1.50119 4.03574 1.25123 3.93042C1.00127 3.8251 0.780966 3.67596 0.590349 3.483C0.399711 3.29004 0.253247 3.06795 0.150979 2.81673C0.0487102 2.56552 -0.00160217 2.30428 4.16149e-05 2.03304C0.00347484 1.46821 0.206077 0.987313 0.607889 0.590338C1.0097 0.193384 1.49304 -0.00338121 2.05788 4.16149e-05L2.05788 4.16149e-05Z" transform="translate(57.779755 20.97049)" id="Vector" fill="#59ADFF" fill-rule="evenodd" stroke="none" />
          <path d="M0 0.671974L4.56941 0.671974" transform="translate(30.79602 22.343979)" id="Line-7" fill="#000000" fill-rule="evenodd" stroke="none" />
          <path d="M6.61487 0L2.04545 0C1.48062 0 0.998487 0.199699 0.599088 0.599088C0.199689 0.998497 0 1.48062 0 2.04545C0 2.61028 0.199689 3.0924 0.599088 3.4918C0.998487 3.8912 1.48062 4.0909 2.04545 4.09091L6.61487 4.09091C7.17971 4.0909 7.66182 3.8912 8.0612 3.4918C8.46062 3.0924 8.66033 2.61028 8.66033 2.04545C8.66033 1.48062 8.46062 0.998497 8.0612 0.599088C7.66182 0.199699 7.17971 0 6.61487 0L6.61487 0Z" transform="translate(28.75055 20.97049)" id="Vector" fill="#59ADFF" fill-rule="evenodd" stroke="none" />
          <path d="M0 6.62973L3.82767 0" transform="translate(23.113647 16.369095)" id="Line-5" fill="#000000" fill-rule="evenodd" stroke="none" />
          <path d="M4.10683 1.02783L0.279153 7.65755C-0.00326677 8.14672 -0.0713903 8.66409 0.0748028 9.20969C0.220996 9.75528 0.538684 10.1693 1.02785 10.4517C1.51701 10.7341 2.03436 10.8022 2.57996 10.656C3.12555 10.5098 3.53957 10.1922 3.82199 9.70301L7.64967 3.07328C7.93209 2.58411 8.00019 2.06673 7.854 1.52114C7.70781 0.975546 7.39014 0.561541 6.90098 0.279132C6.41181 -0.00328758 5.89442 -0.0714007 5.34882 0.0747923C4.80323 0.220975 4.38925 0.538653 4.10683 1.02783L4.10683 1.02783Z" transform="translate(21.063019 14.318535)" id="Vector" fill="#59ADFF" fill-rule="evenodd" stroke="none" />
          <path d="M0 0L3.82769 6.62974" transform="translate(26.96582 16.3862)" id="Line-6" fill="#000000" fill-rule="evenodd" stroke="none" />
          <path d="M7.64486 7.65756L3.81717 1.02782C3.53475 0.538653 3.12072 0.220975 2.57513 0.0747923C2.02954 -0.0714007 1.51216 -0.00328757 1.02302 0.279142C0.788123 0.414765 0.588101 0.590172 0.422994 0.805373C0.257867 1.02055 0.140201 1.25915 0.0699962 1.52116C-0.000208074 1.78317 -0.0176031 2.04863 0.0177904 2.31754C0.0531838 2.58647 0.138702 2.83837 0.274325 3.07328L4.10202 9.70302C4.38442 10.1922 4.79842 10.5098 5.34402 10.656C5.88961 10.8022 6.40698 10.7341 6.89617 10.4517C7.13106 10.3161 7.33108 10.1407 7.49621 9.92548C7.66134 9.71028 7.77901 9.47168 7.84921 9.20968C7.91941 8.94769 7.93683 8.68223 7.90144 8.41331C7.86602 8.14438 7.7805 7.89247 7.64486 7.65756L7.64486 7.65756Z" transform="translate(24.920074 14.335648)" id="Vector" fill="#59ADFF" fill-rule="evenodd" stroke="none" />
          <path d="M0 0L1.98135 7.39453" transform="translate(35.365417 23.015938)" id="Line-8" fill="#000000" fill-rule="evenodd" stroke="none" />
          <path d="M6.00765 8.9109L4.0263 1.51637C3.95612 1.25438 3.83845 1.01578 3.67332 0.800577C3.50819 0.585386 3.30817 0.409979 3.07326 0.274346C2.83836 0.138713 2.58645 0.0532046 2.31751 0.0178008C2.0486 -0.0176031 1.78313 -0.000197671 1.52115 0.070017C0.975556 0.2162 0.561551 0.533877 0.279132 1.02304C-0.00328757 1.51221 -0.0714111 2.02959 0.0748027 2.57518L2.05615 9.96971C2.12637 10.2317 2.24404 10.4703 2.40917 10.6855C2.57427 10.9007 2.7743 11.0761 3.00919 11.2117C3.24409 11.3473 3.49598 11.4328 3.76492 11.4683C4.03383 11.5037 4.29929 11.4863 4.5613 11.4161C5.10687 11.2699 5.52088 10.9522 5.8033 10.463C6.08569 9.97387 6.15382 9.45649 6.00765 8.9109L6.00765 8.9109Z" transform="translate(33.31488 20.97017)" id="Vector" fill="#59ADFF" fill-rule="evenodd" stroke="none" />
          <path d="M0 28.3567L7.59813 0" transform="translate(37.314148 2.0510101)" id="Line-9" fill="#000000" fill-rule="evenodd" stroke="none" />
          <path d="M7.67293 1.51636L0.0748027 29.873C-0.0713903 30.4186 -0.00328758 30.936 0.279111 31.4252C0.56153 31.9143 0.975557 32.232 1.52115 32.3782C1.78314 32.4484 2.0486 32.4658 2.31749 32.4304C2.58641 32.395 2.83832 32.3095 3.07324 32.1738C3.30815 32.0382 3.50818 31.8628 3.67332 31.6476C3.83843 31.4324 3.9561 31.1938 4.0263 30.9318L11.6244 2.57517C11.7706 2.02958 11.7025 1.5122 11.4201 1.02303C11.1376 0.533867 10.7237 0.216189 10.1781 0.0700066C9.91608 -0.000208074 9.65061 -0.0176031 9.38168 0.0178008C9.11274 0.0532046 8.86085 0.138723 8.62595 0.274346C8.39106 0.409979 8.19106 0.585386 8.02595 0.800577C7.86082 1.01577 7.74316 1.25437 7.67293 1.51636L7.67293 1.51636Z" transform="translate(35.26361 0.0052490234)" id="Vector" fill="#59ADFF" fill-rule="evenodd" stroke="none" />
          <path d="M0 20.5213L3.61844 0" transform="translate(55.865753 23.00293)" id="Line-11" fill="#000000" fill-rule="evenodd" stroke="none" />
          <path d="M3.6499 1.69339L0.0314609 22.2146C-0.0156472 22.4818 -0.00984192 22.7477 0.0488559 23.0125C0.107554 23.2774 0.214712 23.5209 0.370289 23.743C0.525887 23.9652 0.718065 24.1492 0.946843 24.295C1.17562 24.4407 1.42356 24.5371 1.69067 24.5842C2.24691 24.6823 2.75638 24.5693 3.21908 24.2454C3.68177 23.9214 3.96215 23.4813 4.06024 22.925L7.67868 2.40376C7.72576 2.13663 7.71996 1.87066 7.66124 1.60585C7.60254 1.34103 7.49541 1.09753 7.33983 0.875348C7.18425 0.653156 6.99209 0.469197 6.76332 0.323452C6.53456 0.177716 6.28662 0.0812947 6.01947 0.034197C5.4632 -0.0638997 4.95371 0.0490535 4.49102 0.373036C4.02832 0.697018 3.74796 1.13714 3.6499 1.69339L3.6499 1.69339Z" transform="translate(53.819916 20.954353)" id="Vector" fill="#59ADFF" fill-rule="evenodd" stroke="none" />
          <path d="M0 0L10.6172 41.4608" transform="translate(44.9075 2.050331)" id="Line-10" fill="#000000" fill-rule="evenodd" stroke="none" />
          <path d="M4.0273 1.54291L14.6445 43.0037C14.7118 43.2665 14.7262 43.5321 14.6878 43.8006C14.6494 44.0691 14.5611 44.3201 14.4229 44.5535C14.2847 44.7868 14.1071 44.9849 13.8901 45.1476C13.673 45.3104 13.4332 45.4254 13.1704 45.4926C12.6232 45.6327 12.1066 45.5589 11.6206 45.2711C11.1346 44.9832 10.8216 44.5657 10.6814 44.0185L0.0642742 2.55775C-0.00301708 2.29499 -0.0174782 2.02935 0.0209115 1.76084C0.0593012 1.49232 0.147608 1.24137 0.285832 1.00799C0.424056 0.774599 0.601689 0.576553 0.818689 0.413829C1.03569 0.251104 1.27558 0.136101 1.53836 0.0688206C2.08553 -0.0713071 2.60212 0.00254891 3.08809 0.290389C3.57409 0.578218 3.88716 0.99573 4.0273 1.54291L4.0273 1.54291Z" transform="translate(42.861725 0)" id="Vector" fill="#59ADFF" fill-rule="evenodd" stroke="none" />
        </g>
        <path d="M188 0L0 0L0 161.4L188 161.4L188 0ZM127.352 86.6813C130.762 82.408 132.8 76.992 132.8 71.1C132.8 57.2929 121.607 46.1 107.8 46.1C98.2946 46.1 90.0282 51.4049 85.8 59.2155C81.5717 51.4049 73.3054 46.1 63.8 46.1C49.9929 46.1 38.8 57.2929 38.8 71.1C38.8 76.8516 40.7423 82.1495 44.0067 86.3737L48.5263 90.8933C48.5748 90.9308 48.6234 90.9681 48.6722 91.0052L85.833 128.166L123.219 90.7804C123.273 90.7377 123.327 90.6948 123.381 90.6517L127.352 86.6813Z" transform="translate(-38.799988 -46.09999)" id="Rectangle-5-Xor" fill="#D3D3D3" fill-rule="evenodd" stroke="none" />
      </g>
    </g>
  </g>
</svg>